<!DOCTYPE svg PUBLIC "-//W3C//DTD SVG 1.1//EN" "http://www.w3.org/Graphics/SVG/1.1/DTD/svg11.dtd">
<!-- Uploaded to: SVG Repo, www.svgrepo.com, Transformed by: SVG Repo Mixer Tools -->
<svg width="800px" height="800px" viewBox="0 0 32 32" enable-background="new 0 0 32 32" version="1.1" xml:space="preserve" xmlns="http://www.w3.org/2000/svg" xmlns:xlink="http://www.w3.org/1999/xlink" fill="#000000">
<g id="SVGRepo_bgCarrier" stroke-width="0"/>
<g id="SVGRepo_tracerCarrier" stroke-linecap="round" stroke-linejoin="round"/>
<g id="SVGRepo_iconCarrier"> <g id="Files_Folder40"/> <g id="Files_Folder39"/> <g id="Files_Folder38"/> <g id="Files_Folder37"/> <g id="Files_Folder36"/> <g id="Files_Folder35"/> <g id="Files_Folder34"/> <g id="Files_Folder33"/> <g id="Files_Folder32"/> <g id="Files_Folder31"/> <g id="Files_Folder30"/> <g id="Files_Folder29"/> <g id="Files_Folder28"/> <g id="Files_Folder27"/> <g id="Files_Folder26"> <path d="M31,10v17c0,0.55-0.45,1-1,1H2c-0.55,0-1-0.45-1-1V5c0-0.55,0.45-1,1-1h11c0.35,0,0.68,0.18,0.86,0.49 L16.57,9H30C30.55,9,31,9.45,31,10z" fill="#FFC10A"/> <path d="M21,18h-4v-4c0-0.5527-0.4478-1-1-1s-1,0.4473-1,1v4h-4c-0.5522,0-1,0.4473-1,1s0.4478,1,1,1h4v4 c0,0.5527,0.4478,1,1,1s1-0.4473,1-1v-4h4c0.5522,0,1-0.4473,1-1S21.5522,18,21,18z" fill="#ffffff"/> </g> <g id="Files_Folder25"/> <g id="Files_Folder24"/> <g id="Files_Folder23"/> <g id="Files_Folder22"/> <g id="Files_Folder21"/> <g id="Files_Folder20"/> <g id="Files_Folder19"/> <g id="Files_Folder18"/> <g id="Files_Folder17"/> <g id="Files_Folder16"/> <g id="Files_Folder15"/> <g id="Files_Folder14"/> <g id="Files_Folder13"/> <g id="Files_Folder12"/> <g id="Files_Folder11"/> <g id="Files_Folder10"/> <g id="Files_Folder09"/> <g id="Files_Folder08"/> <g id="Files_Folder07"/> <g id="Files_Folder06"/> <g id="Files_Folder05"/> <g id="Files_Folder04"/> <g id="Files_Folder03"/> <g id="Files_Folder02"/> <g id="Files_Folder01"/> </g>
</svg>